<?xml version="1.0" standalone="no"?>
<!DOCTYPE svg PUBLIC "-//W3C//DTD SVG 20010904//EN"
 "http://www.w3.org/TR/2001/REC-SVG-20010904/DTD/svg10.dtd">
<svg version="1.0" xmlns="http://www.w3.org/2000/svg"
 width="128.000000pt" height="128.000000pt" viewBox="0 0 128.000000 128.000000"
 preserveAspectRatio="xMidYMid meet">

<g transform="translate(0.000000,128.000000) scale(0.100000,-0.100000)"
fill="#000000" stroke="none">
<path d="M445 984 c-20 -15 -20 -15 -1 -30 11 -8 23 -14 26 -14 28 0 44 -203
21 -263 -26 -67 -90 1 -190 200 -22 45 -50 87 -60 93 -30 15 -203 13 -226 -4
-18 -13 -18 -16 15 -91 46 -105 145 -277 209 -364 118 -159 246 -231 413 -231
78 0 98 14 98 68 0 43 32 102 55 102 9 0 51 -36 93 -79 42 -44 88 -82 102 -86
14 -3 79 -4 144 -3 97 2 121 6 129 19 18 29 -13 79 -110 181 -51 53 -93 103
-93 111 0 16 28 59 127 196 34 46 67 102 74 124 20 60 3 67 -146 67 -105 0
-124 -2 -138 -18 -10 -10 -17 -22 -17 -26 0 -17 -84 -174 -117 -219 -41 -55
-69 -74 -87 -57 -7 7 -13 68 -16 159 -4 105 -9 153 -19 164 -19 24 -256 24
-286 1z"/>
</g>
</svg>
