<?xml version="1.0" standalone="no"?>
<!DOCTYPE svg PUBLIC "-//W3C//DTD SVG 20010904//EN"
 "http://www.w3.org/TR/2001/REC-SVG-20010904/DTD/svg10.dtd">
<svg version="1.0" xmlns="http://www.w3.org/2000/svg"
 width="981.000000pt" height="981.000000pt" viewBox="0 0 981.000000 981.000000"
 preserveAspectRatio="xMidYMid meet">

<g transform="translate(0.000000,981.000000) scale(0.100000,-0.100000)"
fill="#000000" stroke="none">
<path d="M5819 7866 c-145 -31 -366 -122 -473 -195 -23 -16 -168 -152 -321
-302 -447 -435 -2515 -2503 -2515 -2514 0 -9 176 -187 302 -304 l47 -44 1163
1159 c1441 1436 1597 1583 1764 1665 l69 34 195 -1 c168 0 206 -3 275 -22 347
-96 644 -396 751 -757 32 -111 44 -299 24 -409 -30 -173 -59 -216 -345 -521
-230 -245 -2768 -2783 -2985 -2985 -200 -186 -245 -212 -383 -218 -117 -6
-193 10 -307 65 -82 39 -108 58 -186 137 -142 143 -194 264 -194 453 0 141 12
182 80 266 31 40 151 171 266 292 269 283 2520 2535 2725 2727 264 246 297
263 401 215 102 -46 170 -141 183 -257 l6 -55 -1318 -1318 -1319 -1318 175
-174 c96 -96 177 -175 181 -175 10 0 2187 2185 2400 2410 272 287 316 340 341
419 30 94 37 262 15 372 -31 160 -142 340 -274 445 -143 113 -279 164 -457
172 -149 6 -261 -18 -340 -73 -110 -75 -365 -324 -1674 -1629 -1678 -1675
-1718 -1717 -1806 -1888 -57 -110 -81 -201 -89 -349 -21 -349 90 -643 333
-887 221 -221 547 -363 830 -362 94 1 267 31 343 60 179 67 272 154 1802 1680
1241 1238 1736 1741 1864 1894 109 131 188 308 229 514 24 122 24 355 -1 487
-84 449 -365 854 -754 1086 -170 101 -336 163 -527 195 -128 22 -412 27 -496
10z"/>
</g>
</svg>
