<?xml version="1.0" standalone="no"?>
<!DOCTYPE svg PUBLIC "-//W3C//DTD SVG 20010904//EN"
 "http://www.w3.org/TR/2001/REC-SVG-20010904/DTD/svg10.dtd">
<svg version="1.0" xmlns="http://www.w3.org/2000/svg"
 width="4336.000000pt" height="729.000000pt" viewBox="0 0 4336.000000 729.000000"
 preserveAspectRatio="xMidYMid meet">

<g transform="translate(0.000000,729.000000) scale(0.100000,-0.100000)"
fill="#000000" stroke="none">
<path d="M4105 6610 c-60 -13 -124 -38 -175 -67 -65 -37 -2576 -2547 -2619
-2617 -105 -174 -107 -355 -5 -535 17 -30 465 -484 1301 -1319 1000 -997 1288
-1280 1336 -1308 68 -40 186 -74 256 -74 93 0 230 47 301 102 42 33 2534 2521
2562 2558 134 178 137 414 9 596 -52 74 -2525 2543 -2594 2589 -94 64 -265 99
-372 75z m346 -907 l250 -247 -900 -901 -901 -900 196 -193 c161 -159 198
-191 212 -183 9 6 96 89 192 186 l175 175 247 -247 248 -248 -437 -437 c-241
-241 -441 -438 -444 -438 -3 0 -318 311 -700 691 l-694 690 1150 1149 c633
631 1152 1148 1154 1149 2 1 115 -110 252 -246z m1352 -1346 l696 -693 -1145
-1145 c-629 -629 -1149 -1146 -1154 -1147 -6 -2 -122 107 -258 242 l-247 246
898 893 c493 491 897 896 897 901 0 5 -87 95 -194 201 l-193 193 -189 -189
-189 -189 -250 250 -250 250 440 440 c242 242 440 440 441 440 0 0 314 -312
697 -693z"/>
<path d="M16392 5710 c-671 -53 -1122 -371 -1227 -865 -22 -103 -23 -313 -1
-410 37 -169 85 -263 195 -378 209 -218 393 -298 1086 -467 290 -71 387 -101
485 -150 92 -47 151 -97 187 -158 37 -63 39 -173 5 -244 -52 -105 -176 -183
-349 -220 -143 -30 -419 -30 -596 1 -292 51 -533 142 -761 288 -37 24 -69 43
-71 41 -7 -9 -265 -591 -265 -598 0 -14 158 -110 264 -161 126 -59 298 -119
462 -159 361 -89 801 -104 1137 -40 507 98 854 376 969 775 20 70 23 102 23
260 0 158 -3 190 -23 259 -38 133 -95 229 -192 326 -205 206 -363 272 -1075
450 -471 118 -604 175 -669 291 -28 48 -31 63 -31 134 0 67 5 89 28 137 51
105 155 178 312 219 103 27 356 37 503 20 215 -25 462 -103 670 -212 81 -42
94 -46 99 -31 4 9 58 143 120 296 62 154 113 285 113 292 0 21 -242 136 -381
182 -310 102 -689 147 -1017 122z"/>
<path d="M21660 5714 c-224 -19 -401 -54 -577 -115 -538 -186 -958 -615 -1107
-1131 -204 -706 5 -1443 533 -1882 257 -214 563 -350 926 -413 145 -24 537
-25 695 0 367 57 709 183 960 354 l85 58 0 700 0 700 -365 0 -365 0 -3 -507
-2 -506 -88 -37 c-331 -139 -745 -135 -1045 9 -410 197 -635 619 -589 1108 25
271 125 492 301 669 203 204 479 309 811 309 325 0 567 -92 818 -310 l84 -72
36 34 c20 19 129 119 242 223 113 103 212 194 220 201 12 12 6 23 -50 80 -274
278 -629 450 -1055 508 -112 15 -383 27 -465 20z"/>
<path d="M7990 3936 l0 -1726 868 0 c710 0 891 3 996 15 746 87 1301 498 1507
1117 139 414 123 909 -41 1293 -83 195 -176 331 -335 491 -271 271 -611 434
-1057 506 -127 21 -170 22 -1035 25 l-903 4 0 -1725z m1820 1036 c244 -53 413
-144 566 -304 115 -119 188 -255 236 -435 21 -79 23 -110 23 -298 0 -184 -3
-221 -23 -298 -105 -417 -410 -683 -862 -752 -72 -11 -199 -15 -527 -15 l-433
0 0 1066 0 1066 463 -5 c418 -4 471 -6 557 -25z"/>
<path d="M12050 3935 l0 -1725 1335 0 1335 0 0 320 0 320 -940 0 -940 0 0 395
0 395 800 0 800 0 0 315 0 315 -800 0 -800 0 0 370 0 370 905 0 905 0 0 325 0
325 -1300 0 -1300 0 0 -1725z"/>
<path d="M18500 3935 l0 -1725 400 0 400 0 0 1725 0 1725 -400 0 -400 0 0
-1725z"/>
<path d="M23910 3935 l0 -1725 395 0 395 0 2 1039 3 1039 853 -1039 853 -1039
330 0 329 0 0 1725 0 1725 -395 0 -395 0 -2 -1043 -3 -1043 -854 1043 -854
1043 -329 0 -328 0 0 -1725z"/>
<path d="M30351 5638 c-5 -13 -348 -781 -761 -1708 -414 -927 -754 -1693 -757
-1702 -5 -17 19 -18 403 -18 l409 0 152 368 151 367 799 3 798 2 149 -362 c82
-200 152 -366 156 -371 3 -4 194 -6 423 -5 l416 3 -769 1720 -769 1720 -396 3
-395 2 -9 -22z m669 -1420 c146 -352 267 -645 268 -649 2 -5 -236 -9 -538 -9
-298 0 -540 4 -538 9 46 120 535 1290 538 1291 3 0 124 -289 270 -642z"/>
<path d="M33040 3936 l0 -1726 400 0 400 0 0 480 0 480 363 0 364 0 332 -480
332 -480 430 0 c273 0 428 4 424 10 -3 5 -176 253 -384 552 l-379 542 90 48
c353 187 558 485 607 883 28 232 -8 488 -99 690 -139 310 -452 553 -843 655
-240 63 -240 63 -1179 67 l-858 4 0 -1725z m1735 1036 c229 -63 368 -193 422
-393 11 -42 17 -102 17 -174 0 -189 -47 -308 -163 -418 -75 -70 -162 -117
-278 -149 -73 -21 -103 -22 -505 -26 l-428 -3 0 596 0 596 428 -3 c402 -4 432
-5 507 -26z"/>
<path d="M36650 3935 l0 -1725 1335 0 1335 0 0 320 0 320 -940 0 -940 0 0 395
0 395 800 0 800 0 0 315 0 315 -800 0 -800 0 0 370 0 370 905 0 905 0 0 325 0
325 -1300 0 -1300 0 0 -1725z"/>
<path d="M41021 5638 c-5 -13 -348 -781 -761 -1708 -414 -927 -754 -1693 -757
-1702 -5 -17 19 -18 403 -18 l409 0 152 368 151 367 799 3 798 2 149 -362 c82
-200 152 -366 156 -371 3 -4 194 -6 423 -5 l416 3 -769 1720 -769 1720 -396 3
-395 2 -9 -22z m669 -1420 c146 -352 267 -645 268 -649 2 -5 -236 -9 -538 -9
-298 0 -540 4 -538 9 46 120 535 1290 538 1291 3 0 124 -289 270 -642z"/>
</g>
</svg>
