<?xml version="1.0" standalone="no"?>
<!DOCTYPE svg PUBLIC "-//W3C//DTD SVG 20010904//EN"
 "http://www.w3.org/TR/2001/REC-SVG-20010904/DTD/svg10.dtd">
<svg version="1.0" xmlns="http://www.w3.org/2000/svg"
 width="2474.000000pt" height="2471.000000pt" viewBox="0 0 2474.000000 2471.000000"
 preserveAspectRatio="xMidYMid meet">

<g transform="translate(0.000000,2471.000000) scale(0.100000,-0.100000)"
fill="#000000" stroke="none">
<path d="M12105 24699 c-198 -26 -483 -118 -710 -229 -120 -58 -154 -80 -235
-152 -418 -373 -2468 -2395 -5540 -5468 -3221 -3221 -5116 -5144 -5271 -5350
-48 -64 -165 -301 -213 -433 -95 -255 -130 -474 -123 -752 7 -271 48 -469 153
-735 86 -216 147 -318 270 -453 504 -555 4082 -4155 7479 -7526 2470 -2451
3002 -2970 3291 -3210 210 -174 669 -339 1058 -381 340 -37 944 134 1292 365
119 79 1081 1033 5708 5655 4144 4140 5014 5016 5087 5120 215 303 348 678
379 1060 35 431 -92 919 -338 1295 -98 151 -342 401 -2801 2878 -3190 3212
-7576 7563 -7999 7933 -184 161 -562 307 -959 369 -119 19 -432 27 -528 14z
m820 -3310 c275 -272 733 -724 1019 -1007 l518 -512 -1330 -1338 c-731 -735
-2419 -2425 -3750 -3754 l-2421 -2417 607 -597 c824 -811 982 -955 1060 -970
29 -6 39 0 110 62 42 38 387 377 765 754 l688 684 1029 -1029 1030 -1030
-1272 -1273 c-700 -701 -1524 -1521 -1832 -1823 l-558 -550 -67 62 c-156 147
-1575 1552 -3584 3548 l-2158 2145 1508 1509 c829 830 2988 2984 4797 4788
l3289 3278 26 -18 c15 -11 251 -241 526 -512z m6297 -6268 c1500 -1493 2728
-2717 2728 -2721 0 -10 -8944 -8946 -9282 -9274 -282 -273 -288 -278 -311
-263 -33 21 -210 182 -427 387 -200 189 -1644 1621 -1645 1631 0 3 943 944
2095 2089 2251 2239 4979 4966 5228 5228 l153 161 -73 83 c-40 46 -403 415
-807 821 l-735 738 -788 -788 -788 -788 -1043 1043 -1042 1043 1833 1831 1833
1832 171 -170 c95 -93 1400 -1390 2900 -2883z"/>
</g>
</svg>
